<?xml version="1.0" encoding="utf-8"?><svg viewBox="0 0 61 16" xmlns="http://www.w3.org/2000/svg" xmlns:xlink="http://www.w3.org/1999/xlink"><style>:root>svg{display:none}:root>svg:target{display:block}</style><svg fill="none" viewBox="0 0 61 16" id="arrow-long" xmlns="http://www.w3.org/2000/svg"><path d="M60.707 8.707a1 1 0 000-1.414L54.343.929a1 1 0 10-1.414 1.414L58.586 8l-5.657 5.657a1 1 0 001.414 1.414l6.364-6.364zM0 9h60V7H0v2z" fill="#533738"/></svg><svg fill="none" viewBox="0 0 33 16" id="arrow-short-next" xmlns="http://www.w3.org/2000/svg"><path d="M32.707 8.707a1 1 0 000-1.414L26.343.929a1 1 0 10-1.414 1.414L30.586 8l-5.657 5.657a1 1 0 001.414 1.414l6.364-6.364zM0 9h32V7H0v2z" fill="#F5F2ED"/></svg><svg fill="none" viewBox="0 0 33 16" id="arrow-short-prev" xmlns="http://www.w3.org/2000/svg"><path d="M.293 8.707a1 1 0 010-1.414L6.657.929A1 1 0 018.07 2.343L2.414 8l5.657 5.657a1 1 0 11-1.414 1.414L.293 8.707zM33 9H1V7h32v2z" fill="#F5F2ED"/></svg></svg>